<?xml version="1.0" encoding="UTF-8" ?>
<!DOCTYPE svg PUBLIC "-//W3C//DTD SVG 1.1//EN" "http://www.w3.org/Graphics/SVG/1.1/DTD/svg11.dtd">
<svg width="512pt" height="512pt" viewBox="0 0 512 512" version="1.1" xmlns="http://www.w3.org/2000/svg">
<g id="#ffab00ff">
<path fill="#ffab00" opacity="1.00" d=" M 245.60 0.00 L 269.13 0.00 C 303.19 2.06 336.95 10.34 367.64 25.37 C 420.43 50.92 464.00 95.09 488.49 148.40 C 502.81 179.01 510.70 212.54 512.00 246.28 L 512.00 265.77 C 510.40 307.62 498.51 349.12 477.17 385.20 C 458.61 417.01 433.07 444.70 402.90 465.83 C 362.93 494.09 314.64 510.24 265.74 512.00 L 246.55 512.00 L 245.34 511.92 C 252.34 510.14 259.58 509.86 266.66 508.59 C 301.46 502.89 335.07 489.95 364.57 470.63 C 412.13 439.87 448.98 392.81 467.17 339.15 C 469.34 332.03 472.43 325.07 472.79 317.54 C 483.79 277.47 483.80 234.54 472.80 194.47 C 472.54 192.36 472.40 190.23 471.95 188.15 C 461.69 150.53 442.57 115.40 416.67 86.26 C 411.13 80.49 406.19 74.13 399.95 69.07 C 360.48 31.91 308.87 7.88 254.99 1.79 C 251.40 1.42 247.86 0.73 244.31 0.11 L 245.60 0.00 Z" />
</g>
<g id="#ffc400ff">
<path fill="#ffc400" opacity="1.00" d=" M 151.90 22.07 C 180.97 8.98 212.53 1.89 244.31 0.11 C 247.86 0.73 251.40 1.42 254.99 1.79 C 308.87 7.88 360.48 31.91 399.95 69.07 C 406.19 74.13 411.13 80.49 416.67 86.26 C 442.57 115.40 461.69 150.53 471.95 188.15 C 472.40 190.23 472.54 192.36 472.80 194.47 C 469.38 184.32 466.12 174.09 461.62 164.35 C 448.05 133.84 427.56 106.43 402.14 84.78 C 376.43 62.73 345.64 46.68 312.87 38.15 C 272.92 27.83 230.12 28.56 190.63 40.61 C 147.41 53.57 108.44 80.06 80.28 115.29 C 55.04 146.71 38.47 185.03 33.07 224.98 C 27.22 267.14 33.48 310.95 51.27 349.64 C 73.92 399.51 115.50 440.39 165.74 462.22 C 207.30 480.50 254.43 485.59 298.97 476.96 C 334.35 470.19 367.99 454.64 396.14 432.16 C 421.20 412.26 441.92 386.92 456.47 358.41 C 463.30 345.38 468.28 331.51 472.79 317.54 C 472.43 325.07 469.34 332.03 467.17 339.15 C 448.98 392.81 412.13 439.87 364.57 470.63 C 335.07 489.95 301.46 502.89 266.66 508.59 C 259.58 509.86 252.34 510.14 245.34 511.92 C 203.10 509.92 161.32 497.75 125.02 475.97 C 73.99 445.58 34.01 397.01 14.42 340.90 C 5.23 314.85 0.45 287.29 0.00 259.68 L 0.00 251.29 C 0.43 232.94 2.63 214.62 6.89 196.77 C 16.53 155.72 36.72 117.29 64.79 85.85 C 88.86 58.74 118.80 36.85 151.90 22.07 Z" />
</g>
<g id="#ffd740ff">
<path fill="#ffd740" opacity="1.00" d=" M 190.63 40.61 C 230.12 28.56 272.92 27.83 312.87 38.15 C 345.64 46.68 376.43 62.73 402.14 84.78 C 427.56 106.43 448.05 133.84 461.62 164.35 C 466.12 174.09 469.38 184.32 472.80 194.47 C 483.80 234.54 483.79 277.47 472.79 317.54 C 468.28 331.51 463.30 345.38 456.47 358.41 C 441.92 386.92 421.20 412.26 396.14 432.16 C 367.99 454.64 334.35 470.19 298.97 476.96 C 254.43 485.59 207.30 480.50 165.74 462.22 C 115.50 440.39 73.92 399.51 51.27 349.64 C 33.48 310.95 27.22 267.14 33.07 224.98 C 38.47 185.03 55.04 146.71 80.28 115.29 C 108.44 80.06 147.41 53.57 190.63 40.61 M 358.40 130.29 C 357.45 130.88 356.51 131.47 355.57 132.07 C 354.20 132.58 352.85 133.12 351.46 133.57 C 349.54 134.53 347.53 135.26 345.55 136.06 C 343.83 136.76 341.99 137.24 340.41 138.24 C 340.19 138.25 339.76 138.25 339.54 138.26 C 338.02 139.35 336.29 140.10 334.49 140.58 C 332.20 141.62 329.82 142.43 327.49 143.36 C 326.58 143.91 325.59 144.24 324.53 144.36 C 323.19 145.10 321.83 145.81 320.45 146.48 C 318.75 147.03 317.07 147.67 315.44 148.41 C 314.50 148.76 313.56 149.08 312.60 149.37 C 309.31 150.94 305.98 152.50 302.48 153.52 C 298.34 155.73 293.87 157.21 289.56 159.02 C 288.21 159.56 286.86 160.10 285.49 160.57 C 283.87 161.36 282.20 162.05 280.47 162.55 C 278.88 163.41 277.21 164.18 275.41 164.45 C 274.46 164.98 273.51 165.53 272.58 166.10 C 271.21 166.58 269.84 167.06 268.46 167.49 C 266.90 168.40 265.23 169.12 263.44 169.41 C 262.47 169.95 261.51 170.49 260.56 171.06 C 259.21 171.55 257.86 172.03 256.48 172.44 C 254.93 173.37 253.26 174.09 251.48 174.43 C 249.86 175.24 248.29 176.21 246.48 176.52 C 244.17 177.56 241.96 178.88 239.48 179.44 C 237.28 180.72 234.84 181.44 232.50 182.40 C 230.87 183.17 229.17 183.77 227.46 184.35 C 226.48 184.86 225.50 185.36 224.52 185.87 C 223.11 186.28 221.76 186.82 220.42 187.38 C 216.04 188.96 211.87 191.06 207.47 192.56 C 205.87 193.39 204.21 194.10 202.49 194.63 C 200.47 195.53 198.34 196.19 196.40 197.26 C 196.18 197.27 195.75 197.29 195.54 197.30 C 193.59 198.51 191.56 199.57 189.45 200.44 C 187.47 201.48 185.46 202.49 183.38 203.34 C 182.06 204.20 180.74 205.08 179.49 206.05 C 178.78 206.34 178.08 206.62 177.38 206.91 C 174.53 209.32 171.22 211.18 168.67 213.94 C 166.02 215.01 164.31 217.40 162.41 219.41 C 159.97 222.15 156.70 224.19 154.96 227.51 C 151.19 231.86 147.91 236.54 144.98 241.49 C 143.73 243.79 142.59 246.15 141.39 248.48 C 140.65 250.19 139.82 251.87 138.95 253.52 C 138.21 255.55 137.50 257.60 136.54 259.54 C 136.21 260.52 135.86 261.50 135.50 262.48 C 134.76 266.56 133.51 270.53 132.48 274.55 C 130.66 286.19 130.47 298.17 131.95 309.85 C 133.61 321.25 137.36 332.28 142.51 342.56 C 143.95 345.14 145.10 347.89 146.88 350.27 C 147.52 351.40 148.22 352.49 148.99 353.56 C 149.69 354.55 150.39 355.53 151.08 356.54 C 151.94 358.65 154.06 359.83 155.32 361.67 C 158.90 366.70 163.35 371.09 168.35 374.70 C 170.20 376.03 171.43 378.12 173.53 379.11 C 176.19 380.87 178.93 382.52 181.47 384.46 C 182.83 385.09 184.17 385.77 185.49 386.49 C 187.23 387.29 188.96 388.16 190.48 389.35 C 191.48 389.66 192.48 389.98 193.47 390.33 C 194.83 391.03 196.18 391.76 197.54 392.49 C 201.96 393.58 206.20 395.32 210.62 396.43 C 215.99 397.50 221.36 398.90 226.87 398.82 C 237.13 398.97 247.59 399.59 257.63 397.04 C 258.34 396.92 259.76 396.67 260.46 396.55 C 261.70 395.89 263.08 395.72 264.44 395.50 C 265.42 395.14 266.40 394.80 267.40 394.49 C 268.76 393.99 270.13 393.54 271.48 393.02 C 274.19 391.92 276.90 390.80 279.56 389.58 C 281.55 388.55 283.55 387.54 285.60 386.62 C 288.02 385.38 290.33 383.94 292.64 382.52 C 292.99 382.19 293.69 381.52 294.03 381.18 C 295.75 380.51 297.12 379.28 298.47 378.07 C 299.92 377.30 301.16 376.22 302.38 375.14 C 304.85 374.26 306.31 372.00 307.91 370.08 C 310.13 367.27 313.89 365.82 315.19 362.29 C 318.46 359.11 320.34 354.85 323.52 351.63 C 324.19 350.24 324.87 348.86 325.57 347.49 C 326.55 345.84 327.62 344.24 328.63 342.61 C 330.88 337.27 332.95 331.87 335.03 326.47 C 335.51 324.80 335.89 323.11 336.48 321.48 C 337.21 318.49 337.55 315.40 338.52 312.47 C 338.69 310.14 338.87 307.79 339.40 305.51 C 339.96 302.45 339.22 299.14 340.68 296.28 C 341.20 286.82 342.96 277.44 343.86 267.99 C 345.18 261.84 344.95 255.37 346.60 249.35 C 346.63 246.65 346.45 243.84 347.53 241.30 C 347.61 239.05 347.73 236.81 347.84 234.57 C 348.06 234.21 348.50 233.49 348.73 233.13 C 348.15 228.74 349.92 224.55 349.79 220.17 C 350.95 213.63 351.28 206.95 352.50 200.44 C 352.81 198.07 352.52 195.56 353.60 193.35 C 353.67 190.66 353.47 187.85 354.59 185.32 C 354.57 182.74 354.64 180.13 355.37 177.64 C 357.00 164.60 358.21 151.41 360.48 138.48 C 360.61 135.68 360.74 132.89 361.01 130.11 C 360.35 130.16 359.05 130.25 358.40 130.29 Z" />
</g>
</svg>
