<svg xmlns="http://www.w3.org/2000/svg" xmlns:xlink="http://www.w3.org/1999/xlink" viewBox="0 0 107.125 98.125" fill="#fff" fill-rule="evenodd" stroke="#000" stroke-linecap="round" stroke-linejoin="round"><use xlink:href="#A" x="2.083" y="2.083"/><symbol id="A" overflow="visible"><g stroke="none"><g fill="#61b2e4" fill-rule="nonzero"><use xlink:href="#C"/><path d="M100.824 11.848c2.667 5.146 3.404 11.25 1.525 17.17s-6 10.48-11.1 13.167c-5.07 2.625-11.23 3.346-17.152 1.467-9.354-2.97-18.13-17.23-24.448-27.5l-3.035-4.812c1.642-.652 3.38-1.404 5.196-2.198C62.912 4.373 78.243-2.233 87.657.756c5.923 1.88 10.48 6 13.167 11.1z"/><use xlink:href="#D"/></g><path d="M21.683 22.598l-2.5-1.5-5.892-3.567-2.583 6.446C5.056 37.588-2.77 56.47 1 67.852a27.48 27.48 0 0 0 13.729 15.921c6.3 3.112 13.76 3.925 20.965 1.546 3.415-1.127 6.572-2.923 9.285-5.283C49.38 65.384 33.865 39.703 21.7 22.598zM54 8.203l-2.175.93-5.196 2.198 3.038 4.792c6.32 10.283 15.092 24.542 24.448 27.51a22.5 22.5 0 0 0 17.152-1.467c5.1-2.708 9.208-7.246 11.1-13.167 1.742-5.488 1.215-11.12-.992-16.015C91.458 7.446 69.386 7.398 54 8.21zm40.617 83.575c.496-12.556-15.47-26.073-24.292-32.556l-2.035-.208.237 4.104c.417 8.72.958 20.833 5.838 25.967a16.27 16.27 0 0 0 11.367 5.079 16.5 16.5 0 0 0 8.883-2.365z" fill="#92d3f5" fill-rule="nonzero"/></g><g fill="none" stroke-width="4.167"><use xlink:href="#C"/><path d="M91.827 2.565c3.908 2.188 6.98 5.463 8.992 9.28 2.667 5.146 3.404 11.25 1.525 17.17s-6 10.48-11.1 13.167c-5.07 2.625-11.23 3.346-17.152 1.467-9.354-2.97-18.13-17.23-24.448-27.5l-3.038-4.813c1.642-.652 3.38-1.404 5.196-2.198 4.946-2.12 10.735-4.6 16.467-6.454M88.373.994a22.56 22.56 0 0 1 3.454 1.567M87.652.752c.242.077.483.157.723.242M83.427.03c1.504.077 2.923.306 4.23.72m-5.142-.75a22.68 22.68 0 0 1 .915.027m-3.152.046a25.52 25.52 0 0 1 2.237-.073M78.077.31c.746-.104 1.458-.18 2.198-.235m-3.62.458a41.51 41.51 0 0 1 1.417-.223m-4.646.9c1.068-.26 2.144-.486 3.227-.677m-5.027 1.142l1.8-.465m-2.704.72l.904-.254m-3.35 1c.817-.263 1.633-.513 2.446-.746"/><use xlink:href="#D"/></g></symbol><defs ><path id="C" d="M51.574 71.523c-3.187 6.325-8.692 11.417-15.896 13.798s-14.663 1.567-20.965-1.546C8.463 80.64 3.365 75.058.984 67.854-2.774 56.473 5.05 37.59 10.703 23.98l2.583-6.446c1.82 1.156 3.808 2.337 5.892 3.567 12.646 7.57 30.154 18.004 33.958 29.458 2.38 7.204 1.567 14.663-1.546 20.965z"/><path id="D" d="M102.4 78.294c-.115 4.192-1.785 8.313-5.048 11.396s-7.467 4.53-11.625 4.45a16.27 16.27 0 0 1-11.367-5.079c-4.88-5.154-5.437-17.25-5.838-25.967L68.284 59c1.267.163 2.63.292 4.056.43 8.688.875 20.698 2.063 25.61 7.25 3.1 3.263 4.53 7.467 4.45 11.625z"/></defs></svg>